# xmcd
#
# Track frame offsets: 
#        150
#        17410
#        34512
#        45960
#        63367
#        81510
#        99282
#        111757
#        130430
#        148875
#        163737
#        179395
#        190592
#        208342
#
# Disc length: 2933 seconds
#
# Revision: 3
# Processed by: cddbd v1.5.2PL0 Copyright (c) Steve Scherf et al.
# Submitted via: ExactAudioCopy v0.99pb4
#
DISCID=bd0b730e
DTITLE=Eriksen - Two Blue
DYEAR=1992
DGENRE=
TTITLE0=Please Let Me Know You`re Mine
TTITLE1=Come Back Baby
TTITLE2=How Long Blues
TTITLE3=Comin' Down In The Rain
TTITLE4=You Played My Heart
TTITLE5=Is It Real?
TTITLE6=Pallet On Your Floor
TTITLE7=Movin' Time
TTITLE8=Time And Time Again
TTITLE9=You Don't Take Me Nowhere
TTITLE10=The Road To Glory
TTITLE11=Women Be Wise
TTITLE12=I Go Crazy
TTITLE13=I Was Falling In Love
EXTD=
EXTT0=
EXTT1=
EXTT2=
EXTT3=
EXTT4=
EXTT5=
EXTT6=
EXTT7=
EXTT8=
EXTT9=
EXTT10=
EXTT11=
EXTT12=
EXTT13=
PLAYORDER=
